<svg id="Capa_1" enable-background="new 0 0 512 512" height="512" viewBox="0 0 512 512" width="512" xmlns="http://www.w3.org/2000/svg"><g><g><path d="m82.299 486.455h-34.893c-2.761 0-5-2.239-5-5v-29.893c0-2.761 2.239-5 5-5h34.893z" fill="#75cef9"/></g><g><path d="m57.16 446.562v22.585c0 3.646-2.956 6.602-6.602 6.602h-8.152v5.707c0 2.761 2.239 5 5 5h34.893v-39.893h-25.139z" fill="#5ea5ec"/></g><g><path d="m447.594 504.713h-321.69c-12.15 0-22-9.85-22-22v-422.251c0-11.598 9.402-21 21-21h323.69c11.598 0 21 9.402 21 21v422.251c0 12.15-9.849 22-22 22z" fill="#78d0b1"/></g><g><path d="m448.594 39.462h-23.627v398.936c0 11.978-9.71 21.688-21.688 21.688h-299.374v22.627c0 12.15 9.85 22 22 22h321.69c12.15 0 22-9.85 22-22v-422.251c-.001-11.598-9.403-21-21.001-21z" fill="#66b49d"/></g><g><path d="m168.147 83.696h-90.022c-4.418 0-8-3.582-8-8v-60.409c0-4.418 3.582-8 8-8h90.022c4.418 0 8 3.582 8 8v60.409c0 4.418-3.582 8-8 8z" fill="#efecef"/></g><g><path d="m168.147 386.55h-90.022c-4.418 0-8-3.582-8-8v-60.409c0-4.418 3.582-8 8-8h90.022c4.418 0 8 3.582 8 8v60.409c0 4.418-3.582 8-8 8z" fill="#efecef"/></g><g><path d="m168.147 504.713h-90.022c-4.418 0-8-3.582-8-8v-60.409c0-4.418 3.582-8 8-8h90.022c4.418 0 8 3.582 8 8v60.409c0 4.418-3.582 8-8 8z" fill="#efecef"/></g><g><path d="m96.357 150.893v-34.893c0-2.761 2.239-5 5-5h43.558c2.761 0 5 2.239 5 5v34.893z" fill="#efecef"/></g><g><path d="m149.915 244.227v34.893c0 2.761-2.239 5-5 5h-43.558c-2.761 0-5-2.239-5-5v-34.893z" fill="#efecef"/></g><g><path d="m145.057 111h-14.374c2.683 0 4.858 2.175 4.858 4.858v35.036h14.374v-35.036c0-2.684-2.175-4.858-4.858-4.858z" fill="#dddaec"/></g><g><path d="m135.541 244.227v21.535c0 2.683-2.175 4.858-4.858 4.858h-34.326v8.642c0 2.683 2.175 4.858 4.858 4.858h43.842c2.683 0 4.858-2.175 4.858-4.858v-35.036h-14.374z" fill="#dddaec"/></g><g><path d="m168.147 258.574h-90.022c-4.418 0-8-3.582-8-8v-106.028c0-4.418 3.582-8 8-8h90.022c4.418 0 8 3.582 8 8v106.028c0 4.418-3.582 8-8 8z" fill="#407093"/></g><g><path d="m168.147 7.287h-9.544v51.092c0 4.829-3.915 8.744-8.744 8.744h-79.734v8.573c0 4.418 3.582 8 8 8h90.022c4.418 0 8-3.582 8-8v-60.409c0-4.419-3.582-8-8-8z" fill="#dddaec"/></g><g><path d="m168.147 310.141h-9.544v51.092c0 4.829-3.915 8.744-8.744 8.744h-79.734v8.573c0 4.418 3.582 8 8 8h90.022c4.418 0 8-3.582 8-8v-60.409c0-4.418-3.582-8-8-8z" fill="#dddaec"/></g><g><path d="m168.147 428.304h-9.544v51.092c0 4.829-3.915 8.744-8.744 8.744h-79.734v8.573c0 4.418 3.582 8 8 8h90.022c4.418 0 8-3.582 8-8v-60.409c0-4.418-3.582-8-8-8z" fill="#dddaec"/></g><g><path d="m168.147 136.546h-9.544v96.711c0 4.829-3.915 8.744-8.744 8.744h-79.734v8.573c0 4.418 3.582 8 8 8h90.022c4.418 0 8-3.582 8-8v-106.028c0-4.418-3.582-8-8-8z" fill="#365e7d"/></g><g><path d="m403.418 309.885h-188.12c-4.418 0-8-3.582-8-8v-157.339c0-4.418 3.582-8 8-8h188.12c4.418 0 8 3.582 8 8v157.339c0 4.419-3.582 8-8 8z" fill="#efecef"/></g><g><path d="m403.418 136.546h-11.263v145.333c0 4.829-3.915 8.744-8.744 8.744h-176.113v11.263c0 4.418 3.582 8 8 8h188.12c4.418 0 8-3.582 8-8v-157.34c0-4.418-3.582-8-8-8z" fill="#dddaec"/></g><g><path d="m356.671 279.528h-94.625c-4.971 0-9-4.029-9-9v-94.625c0-4.971 4.029-9 9-9h94.625c4.971 0 9 4.029 9 9v94.625c0 4.971-4.03 9-9 9z" fill="#f4dd45"/></g><g><path d="m356.671 166.903h-9.826v85.761c0 4.439-3.599 8.038-8.038 8.038h-85.761v9.826c0 4.971 4.029 9 9 9h94.625c4.971 0 9-4.029 9-9v-94.625c0-4.971-4.03-9-9-9z" fill="#ecc32e"/></g><g><path d="m356.671 428.304h-94.625c-4.971 0-9-4.029-9-9v-58.2-18.477c0-4.971 4.029-9 9-9h94.625c4.971 0 9 4.029 9 9v76.678c0 4.97-4.03 8.999-9 8.999z" fill="#ecb780"/></g><g><path d="m356.671 333.627h-7.791v69.848c0 4.439-3.599 8.038-8.038 8.038h-87.796v7.791c0 4.971 4.029 9 9 9h94.625c4.971 0 9-4.029 9-9v-76.678c0-4.97-4.03-8.999-9-8.999z" fill="#e7a561"/></g><g><path d="m327.013 248.871h-35.311c-4.418 0-8-3.582-8-8v-35.311c0-4.418 3.582-8 8-8h35.311c4.418 0 8 3.582 8 8v35.311c0 4.418-3.581 8-8 8z" fill="#78d0b1"/></g><g><path d="m327.013 197.56h-6.882v28.391c0 4.439-3.599 8.038-8.038 8.038h-28.391v6.882c0 4.418 3.582 8 8 8h35.311c4.418 0 8-3.582 8-8v-35.311c0-4.418-3.581-8-8-8z" fill="#66b49d"/></g><g><path d="m461.594 83.696h-35.311c-4.418 0-8-3.582-8-8v-35.312c0-4.418 3.582-8 8-8h35.311c4.418 0 8 3.582 8 8v35.311c0 4.419-3.581 8.001-8 8.001z" fill="#efecef"/></g><g><path d="m461.594 428.47h-35.311c-4.418 0-8-3.582-8-8v-35.311c0-4.418 3.582-8 8-8h35.311c4.418 0 8 3.582 8 8v35.311c0 4.418-3.581 8-8 8z" fill="#efecef"/></g><g><path d="m461.594 32.384h-8.966v26.307c0 4.439-3.599 8.038-8.038 8.038h-26.307v8.966c0 4.418 3.582 8 8 8h35.311c4.418 0 8-3.582 8-8v-35.311c0-4.418-3.581-8-8-8z" fill="#dddaec"/></g><g><path d="m461.594 377.158h-8.966v26.307c0 4.439-3.599 8.038-8.038 8.038h-26.307v8.966c0 4.418 3.582 8 8 8h35.311c4.418 0 8-3.582 8-8v-35.311c0-4.418-3.581-8-8-8z" fill="#dddaec"/></g><g><path d="m223.224 474.777h-17.255c-2.761 0-5-2.239-5-5v-90.453c0-2.761 2.239-5 5-5h17.255c2.761 0 5 2.239 5 5v90.453c0 2.761-2.239 5-5 5z" fill="#efecef"/></g><g><path d="m223.366 374.324h-8.927v81.81c0 2.683-2.175 4.858-4.858 4.858h-8.612v8.927c0 2.683 2.175 4.858 4.858 4.858h17.539c2.683 0 4.858-2.175 4.858-4.858v-90.737c0-2.683-2.175-4.858-4.858-4.858z" fill="#dddaec"/></g><g><path d="m377.567 112.805h-25.91c-2.761 0-5-2.239-5-5v-40.991c0-2.761 2.239-5 5-5h25.91c2.761 0 5 2.239 5 5v40.991c0 2.761-2.239 5-5 5z" fill="#efecef"/></g><g><path d="m377.567 61.814h-12.075v29.058c0 2.683-2.175 4.858-4.858 4.858h-13.977v12.075c0 2.761 2.239 5 5 5h25.91c2.761 0 5-2.239 5-5v-40.991c0-2.762-2.239-5-5-5z" fill="#dddaec"/></g><g><path d="m277.121 112.805h-25.91c-2.761 0-5-2.239-5-5v-40.991c0-2.761 2.239-5 5-5h25.91c2.761 0 5 2.239 5 5v40.991c0 2.761-2.239 5-5 5z" fill="#407093"/></g><g><path d="m277.121 61.814h-12.075v29.058c0 2.683-2.175 4.858-4.858 4.858h-13.977v12.075c0 2.761 2.239 5 5 5h26.052c2.683 0 4.858-2.175 4.858-4.858v-41.133c0-2.762-2.239-5-5-5z" fill="#365e7d"/></g><g><ellipse cx="214.596" cy="348.346" rx="9.3" ry="9.3" transform="matrix(.383 -.924 .924 .383 -189.356 413.301)"/><ellipse cx="427.583" cy="480.256" rx="9.3" ry="9.3" transform="matrix(.973 -.23 .23 .973 -98.902 111.087)"/><ellipse cx="391.867" cy="480.256" rx="9.3" ry="9.3" transform="matrix(.973 -.23 .23 .973 -99.857 102.879)"/><circle cx="356.371" cy="480.256" r="9.3"/><circle cx="391.867" cy="348.346" r="9.3"/><ellipse cx="214.596" cy="103.504" rx="9.3" ry="9.3" transform="matrix(.973 -.23 .23 .973 -18.04 52.073)"/><ellipse cx="408.399" cy="103.504" rx="9.3" ry="9.3" transform="matrix(.707 -.707 .707 .707 46.429 319.098)"/><ellipse cx="214.596" cy="71.114" rx="9.3" ry="9.3" transform="matrix(.383 -.924 .924 .383 66.774 242.161)"/><ellipse cx="313.735" cy="71.114" rx="9.3" ry="9.3" transform="matrix(.383 -.924 .924 .383 127.974 333.753)"/><ellipse cx="261.499" cy="480.256" rx="9.3" ry="9.3" transform="matrix(.973 -.23 .23 .973 -103.344 72.927)"/><path d="m118.569 326.34h-19.613c-4.025 0-7.287 3.262-7.287 7.287 0 4.024 3.262 7.287 7.287 7.287h19.613c4.025 0 7.287-3.262 7.287-7.287s-3.262-7.287-7.287-7.287z"/><path d="m118.569 355.778h-19.613c-4.025 0-7.287 3.262-7.287 7.287 0 4.024 3.262 7.287 7.287 7.287h19.613c4.025 0 7.287-3.262 7.287-7.287s-3.262-7.287-7.287-7.287z"/><path d="m118.569 444.503h-19.613c-4.025 0-7.287 3.262-7.287 7.287 0 4.024 3.262 7.287 7.287 7.287h19.613c4.025 0 7.287-3.262 7.287-7.287s-3.262-7.287-7.287-7.287z"/><path d="m118.569 473.941h-19.613c-4.025 0-7.287 3.262-7.287 7.287 0 4.024 3.262 7.287 7.287 7.287h19.613c4.025 0 7.287-3.262 7.287-7.287s-3.262-7.287-7.287-7.287z"/><path d="m402.674 129.259h-186.632c-8.839 0-16.031 7.191-16.031 16.031v155.851c0 8.839 7.192 16.031 16.031 16.031h186.632c8.839 0 16.031-7.191 16.031-16.031v-155.851c0-8.84-7.192-16.031-16.031-16.031zm1.457 171.882c0 .804-.654 1.457-1.457 1.457h-186.632c-.804 0-1.457-.654-1.457-1.457v-155.851c0-.804.654-1.457 1.457-1.457h186.632c.804 0 1.457.654 1.457 1.457z"/><path d="m357.632 159.616h-96.548c-8.45 0-15.325 6.875-15.325 15.325v96.549c0 8.45 6.875 15.325 15.325 15.325h96.548c8.45 0 15.325-6.875 15.325-15.325v-96.549c0-8.45-6.875-15.325-15.325-15.325zm.751 111.874c0 .415-.337.752-.751.752h-96.548c-.415 0-.751-.337-.751-.752v-96.549c0-.414.337-.751.751-.751h96.548c.415 0 .751.337.751.751z"/><path d="m261.084 435.591h96.548c8.45 0 15.325-6.874 15.325-15.325v-78.601c0-8.45-6.875-15.325-15.325-15.325h-96.548c-8.45 0-15.325 6.874-15.325 15.325v78.601c0 8.45 6.875 15.325 15.325 15.325zm97.299-40.064h-98.051v-27.137h98.051zm-.751 25.49h-96.548c-.415 0-.751-.337-.751-.751v-10.165h98.051v10.165c-.001.414-.337.751-.752.751zm-96.548-80.104h96.548c.415 0 .751.337.751.751v12.152h-98.051v-12.152c0-.413.337-.751.752-.751z"/><path d="m326.975 190.273h-35.235c-8.45 0-15.325 6.875-15.325 15.325v35.234c0 8.45 6.875 15.325 15.325 15.325h35.235c8.45 0 15.325-6.875 15.325-15.325v-35.234c0-8.45-6.875-15.325-15.325-15.325zm.752 50.56c0 .414-.337.751-.751.751h-35.236c-.415 0-.751-.337-.751-.751v-35.234c0-.415.337-.752.751-.752h35.235c.415 0 .751.337.751.752v35.234z"/><path d="m461.556 25.097h-35.234c-5.413 0-10.169 2.829-12.896 7.078h-229.992v-16.144c0-8.84-7.192-16.031-16.03-16.031h-20.16c-4.025 0-7.287 3.262-7.287 7.287s3.262 7.287 7.287 7.287h20.16c.804 0 1.457.654 1.457 1.457v58.921c0 .804-.654 1.457-1.457 1.457h-88.534c-.804 0-1.457-.654-1.457-1.457v-58.921c0-.804.654-1.457 1.457-1.457h33.87c4.025 0 7.287-3.262 7.287-7.287s-3.262-7.287-7.287-7.287h-33.87c-8.839 0-16.031 7.191-16.031 16.031v58.921c0 8.839 7.192 16.031 16.031 16.031h17.748v13.641c-4.422 1.817-7.547 6.165-7.547 11.234v13.402h-10.201c-8.839 0-16.031 7.191-16.031 16.031v45.719c0 4.024 3.262 7.287 7.287 7.287s7.287-3.262 7.287-7.287v-45.72c0-.804.654-1.457 1.457-1.457h88.534c.804 0 1.457.654 1.457 1.457v104.54c0 .804-.654 1.457-1.457 1.457h-88.534c-.804 0-1.457-.654-1.457-1.457v-23.62c0-4.024-3.262-7.287-7.287-7.287s-7.287 3.262-7.287 7.287v23.619c0 8.839 7.192 16.031 16.031 16.031h10.201v13.402c0 5.069 3.125 9.418 7.547 11.234v12.357h-17.748c-8.839 0-16.031 7.191-16.031 16.031v58.921c0 8.839 7.192 16.031 16.031 16.031h17.748v27.181h-17.748c-8.839 0-16.031 7.191-16.031 16.031v2.227h-15.576c-6.697 0-12.145 5.448-12.145 12.145v30.177c0 6.697 5.448 12.145 12.145 12.145h15.575v2.227c0 8.839 7.192 16.031 16.031 16.031h369.037c15.977 0 28.974-12.998 28.974-28.975v-188.452c0-4.024-3.262-7.287-7.287-7.287s-7.287 3.262-7.287 7.287v75.336c-.251-.012-.498-.038-.751-.038h-10.33v-278.889h10.33c.254 0 .501-.026.751-.038v167.864c0 4.024 3.262 7.287 7.287 7.287s7.287-3.262 7.287-7.287v-218.385c.001-8.451-6.874-15.326-15.324-15.326zm-357.911 93.189h38.984v10.973h-38.984zm38.984 147.575v10.973h-38.984v-10.973zm-65.217 111.945v-58.921c0-.804.654-1.457 1.457-1.457h88.534c.804 0 1.457.654 1.457 1.457v58.921c0 .804-.654 1.457-1.457 1.457h-88.533c-.804 0-1.458-.653-1.458-1.457zm-27.72 101.362v-25.32h13.146v25.32zm29.178 18.259c-.804 0-1.457-.654-1.457-1.457v-58.921c0-.804.654-1.457 1.457-1.457h88.534c.804 0 1.457.654 1.457 1.457v58.921c0 .804-.654 1.457-1.457 1.457zm383.438-112.23v35.235c0 .414-.337.751-.751.751h-35.234c-.415 0-.751-.337-.751-.751v-35.235c0-.414.337-.751.751-.751h35.234c.414-.001.751.336.751.751zm-25.656-15.325h-10.33c-8.45 0-15.325 6.875-15.325 15.325v35.235c0 8.45 6.875 15.325 15.325 15.325h35.234c.254 0 .501-.026.751-.038v47.307c0 7.941-6.46 14.401-14.401 14.401h-264.545c.044-.481.074-.965.074-1.457v-58.921c0-8.839-7.192-16.031-16.031-16.031h-56.212v-27.181h56.212c8.839 0 16.031-7.191 16.031-16.031v-58.921c0-8.839-7.192-16.031-16.031-16.031h-56.212v-11.447h33.866c6.697 0 12.145-5.448 12.145-12.145v-13.402h10.201c8.839 0 16.031-7.191 16.031-16.031v-104.539c0-8.839-7.192-16.031-16.031-16.031h-10.201v-13.402c0-6.697-5.448-12.145-12.145-12.145h-33.866v-12.73h56.212c8.839 0 16.031-7.191 16.031-16.031v-28.202h227.563v28.908c0 8.45 6.875 15.325 15.325 15.325h10.33v278.89zm24.904-293.463h-35.234c-.415 0-.751-.337-.751-.751v-35.235c0-.415.337-.752.751-.752h35.234c.415 0 .751.337.751.752v35.234c.001.414-.336.752-.751.752z"/><path d="m223.366 367.037h-17.539c-6.697 0-12.145 5.448-12.145 12.145v90.737c0 6.697 5.448 12.145 12.145 12.145h17.539c6.697 0 12.145-5.448 12.145-12.145v-90.737c0-6.697-5.448-12.145-12.145-12.145zm-2.429 100.453h-12.682v-85.88h12.682z"/><path d="m401.167 444.503h-148.122c-4.025 0-7.287 3.262-7.287 7.287 0 4.024 3.262 7.287 7.287 7.287h148.122c4.025 0 7.287-3.262 7.287-7.287s-3.262-7.287-7.287-7.287z"/><path d="m351.515 120.091h26.194c6.697 0 12.145-5.448 12.145-12.145v-41.275c0-6.697-5.448-12.145-12.145-12.145h-26.194c-6.697 0-12.145 5.448-12.145 12.145v41.275c.001 6.697 5.448 12.145 12.145 12.145zm2.429-50.991h21.336v36.418h-21.336z"/><g><g><path d="m277.263 120.091h-26.195c-6.697 0-12.145-5.448-12.145-12.145v-41.275c0-6.697 5.448-12.145 12.145-12.145h26.195c6.697 0 12.145 5.448 12.145 12.145v41.275c0 6.697-5.448 12.145-12.145 12.145zm-23.766-14.573h21.337v-36.418h-21.337z"/></g></g></g></g></svg>